<svg xmlns="http://www.w3.org/2000/svg" width="94" height="102"><defs><clipPath id="a"><path fill="#fff" d="M78.672-9.032c20.27 0 36.703 16.433 36.703 36.704 0 20.27-16.433 36.703-36.703 36.703-20.27 0-36.703-16.433-36.703-36.703C41.969 7.4 58.4-9.032 78.672-9.032z"/></clipPath><clipPath id="b"><path fill="#fff" d="M101.953-1.844a1.64 1.64 0 1 1 0 3.281 1.64 1.64 0 0 1 0-3.281z"/></clipPath><clipPath id="c"><path fill="#fff" d="M78.672-22.813c27.882 0 50.484 22.603 50.484 50.485 0 27.881-22.602 50.484-50.484 50.484S28.187 55.553 28.187 27.672c0-27.882 22.603-50.485 50.485-50.485z"/></clipPath><clipPath id="d"><path fill="#fff" d="M54.734 69.625a1.64 1.64 0 1 1 0 3.281 1.64 1.64 0 0 1 0-3.281z"/></clipPath><clipPath id="e"><path fill="#fff" d="M79-51c43.63 0 79 35.37 79 79s-35.37 79-79 79S0 71.63 0 28s35.37-79 79-79z"/></clipPath><clipPath id="f"><path fill="#fff" d="M12.797-16.25a1.64 1.64 0 1 1 0 3.281 1.64 1.64 0 0 1 0-3.281z"/></clipPath></defs><text fill="#fff" style="line-height:24px" dominant-baseline="text-before-edge" font-family="'MullerBold','MullerBold'" font-size="100" font-style="none" font-weight="400" transform="translate(68 10)"><tspan style="font-kerning:normal">?</tspan></text><path fill="none" stroke="#fff" stroke-miterlimit="50" stroke-width="2" d="M78.672-9.032c20.27 0 36.703 16.433 36.703 36.704 0 20.27-16.433 36.703-36.703 36.703-20.27 0-36.703-16.433-36.703-36.703C41.969 7.4 58.4-9.032 78.672-9.032z" clip-path="url(&quot;#a&quot;)"/><path fill="none" stroke="#fff" stroke-miterlimit="50" stroke-width="2" d="M101.953-1.844a1.64 1.64 0 1 1 0 3.281 1.64 1.64 0 0 1 0-3.281z" clip-path="url(&quot;#b&quot;)"/><path fill="none" stroke="#fff" stroke-miterlimit="50" stroke-width="2" d="M78.672-22.813c27.882 0 50.484 22.603 50.484 50.485 0 27.881-22.602 50.484-50.484 50.484S28.187 55.553 28.187 27.672c0-27.882 22.603-50.485 50.485-50.485z" clip-path="url(&quot;#c&quot;)"/><path fill="none" stroke="#fff" stroke-miterlimit="50" stroke-width="2" d="M54.734 69.625a1.64 1.64 0 1 1 0 3.281 1.64 1.64 0 0 1 0-3.281z" clip-path="url(&quot;#d&quot;)"/><path fill="none" stroke="#fff" stroke-miterlimit="50" stroke-width="2" d="M79-51c43.63 0 79 35.37 79 79s-35.37 79-79 79S0 71.63 0 28s35.37-79 79-79z" clip-path="url(&quot;#e&quot;)"/><path fill="none" stroke="#fff" stroke-miterlimit="50" stroke-width="2" d="M12.797-16.25a1.64 1.64 0 1 1 0 3.281 1.64 1.64 0 0 1 0-3.281z" clip-path="url(&quot;#f&quot;)"/></svg>